<?xml version="1.0" encoding="UTF-8" standalone="no"?><!DOCTYPE svg PUBLIC "-//W3C//DTD SVG 1.1//EN" "http://www.w3.org/Graphics/SVG/1.1/DTD/svg11.dtd">
<svg xmlns:serif="http://www.serif.com/" width="100%" height="100%" viewBox="0 0 442 442" version="1.1"
     xmlns="http://www.w3.org/2000/svg" xml:space="preserve" style="fill-rule:evenodd;clip-rule:evenodd;stroke-linejoin:round;stroke-miterlimit:2;"><rect id="Page-1" serif:id="Page 1" x="0" y="0" width="441.678" height="441.678" style="fill:none;"/>
    <g id="Page-11" serif:id="Page 1"><g id="Layer-1" serif:id="Layer 1"><path d="M428.839,220.839c-0,114.875 -93.125,208 -208,208c-114.875,-0 -208,-93.125 -208,-208c-0,-114.875 93.125,-208 208,-208c114.875,-0 208,93.125 208,208" style="fill:#fff;fill-rule:nonzero;"/><path
            d="M93.536,156.357c-16.382,0 -27.175,4.048 -33.919,12.72c-7.324,9.637 -10.986,25.633 -10.986,48.952c0,23.127 4.048,38.93 11.756,48.954c6.939,8.671 17.924,12.718 33.149,12.718c14.84,0 25.632,-4.624 32.956,-14.261c7.517,-10.214 11.564,-26.21 11.564,-47.411c0,-21.97 -3.47,-37.387 -10.601,-47.411c-7.13,-9.636 -18.115,-14.261 -33.919,-14.261"
            style="fill:#009a96;fill-rule:nonzero;"/><path
            d="M387.5,290.302c-1.35,0 -2.891,-0.577 -3.854,-1.927l-39.702,-42.593l-46.446,0l-0,39.123c-0,2.89 -2.699,5.397 -5.59,5.397c-3.083,0 -5.589,-2.507 -5.589,-5.397l-0,-133.558c-0,-3.085 2.506,-5.589 5.589,-5.589l47.026,0c1.348,0 21.97,0.192 36.618,14.647c8.864,8.672 13.298,20.429 13.298,35.268c-0,9.444 -1.542,17.924 -4.626,24.863c-2.699,5.973 -6.552,10.985 -11.371,15.225c-2.505,1.927 -5.782,1.541 -7.902,-0.578c-1.927,-2.313 -1.349,-5.975 0.771,-7.902c8.094,-6.745 11.95,-17.346 11.95,-31.608c-0,-11.562 -3.277,-21.006 -9.83,-27.559c-5.974,-5.782 -13.298,-8.48 -18.501,-9.83c-5.975,-1.347 -10.407,-1.347 -10.407,-1.347l-41.436,0l-0,77.667l49.145,0c1.348,0 2.89,0.771 3.854,1.735l41.243,44.711c1.927,2.121 1.927,5.782 -0.386,7.711c-1.156,1.155 -2.312,1.541 -3.854,1.541m-127.942,-133.751l-74.971,0l-0,44.326l48.952,0c3.085,0 5.782,2.698 5.782,5.781c-0,3.085 -2.697,5.398 -5.782,5.398l-54.54,0c-2.892,0 -5.589,-2.313 -5.589,-5.398l-0,-55.504c-0,-3.083 2.697,-5.396 5.589,-5.396l80.559,0c2.89,0 5.588,2.313 5.588,5.396c-0,3.084 -2.698,5.397 -5.588,5.397m-74.971,128.162c-0,2.891 -2.504,5.589 -5.588,5.589c-2.892,0 -5.589,-2.698 -5.589,-5.589l-0,-56.661c-0,-2.893 2.697,-5.397 5.589,-5.397c3.084,0 5.588,2.504 5.588,5.397l-0,56.661Zm-38.822,-35.076c-2.313,8.865 -5.975,16.767 -10.986,22.934c-9.25,12.142 -23.127,18.309 -41.243,18.309c-18.694,0 -32.185,-5.59 -41.243,-16.961c-9.829,-11.756 -14.647,-30.063 -14.647,-55.89c-0,-13.104 1.156,-23.705 3.276,-32.955c2.12,-9.444 5.396,-17.152 10.214,-22.934c4.819,-5.975 10.793,-10.215 18.117,-13.106c6.745,-2.698 14.839,-3.854 24.283,-3.854c9.444,0 17.731,1.35 24.476,4.626c7.323,2.891 13.298,7.708 18.117,13.875c8.672,11.949 12.912,29.679 12.912,54.348c-0,11.951 -1.157,22.549 -3.276,31.608m75.074,-244.637c-119.205,0 -215.839,96.634 -215.839,215.839c-0,119.204 96.634,215.839 215.839,215.839c119.204,0 215.839,-96.635 215.839,-215.839c-0,-119.205 -96.635,-215.839 -215.839,-215.839"
            style="fill:#009a96;fill-rule:nonzero;"/><path
            d="M428.839,220.839c-0,114.875 -93.125,208 -208,208c-114.875,-0 -208,-93.125 -208,-208c-0,-114.875 93.125,-208 208,-208c114.875,-0 208,93.125 208,208"
            style="fill:#fff;fill-rule:nonzero;"/><path
            d="M93.536,156.357c-16.382,0 -27.175,4.048 -33.919,12.72c-7.324,9.637 -10.986,25.633 -10.986,48.952c0,23.127 4.048,38.93 11.756,48.954c6.939,8.671 17.924,12.718 33.149,12.718c14.84,0 25.632,-4.624 32.956,-14.261c7.517,-10.214 11.564,-26.21 11.564,-47.411c0,-21.97 -3.47,-37.387 -10.601,-47.411c-7.13,-9.636 -18.115,-14.261 -33.919,-14.261"
            style="fill:#009a96;fill-rule:nonzero;"/><path
            d="M387.5,290.302c-1.35,0 -2.891,-0.577 -3.854,-1.927l-39.702,-42.593l-46.446,0l-0,39.123c-0,2.89 -2.699,5.397 -5.59,5.397c-3.083,0 -5.589,-2.507 -5.589,-5.397l-0,-133.558c-0,-3.085 2.506,-5.589 5.589,-5.589l47.026,0c1.348,0 21.97,0.192 36.618,14.647c8.864,8.672 13.298,20.429 13.298,35.268c-0,9.444 -1.542,17.924 -4.626,24.863c-2.699,5.973 -6.552,10.985 -11.371,15.225c-2.505,1.927 -5.782,1.541 -7.902,-0.578c-1.927,-2.313 -1.349,-5.975 0.771,-7.902c8.094,-6.745 11.95,-17.346 11.95,-31.608c-0,-11.562 -3.277,-21.006 -9.83,-27.559c-5.974,-5.782 -13.298,-8.48 -18.501,-9.83c-5.975,-1.347 -10.407,-1.347 -10.407,-1.347l-41.436,0l-0,77.667l49.145,0c1.348,0 2.89,0.771 3.854,1.735l41.243,44.711c1.927,2.121 1.927,5.782 -0.386,7.711c-1.156,1.155 -2.312,1.541 -3.854,1.541m-127.942,-133.751l-74.971,0l-0,44.326l48.952,0c3.085,0 5.782,2.698 5.782,5.781c-0,3.085 -2.697,5.398 -5.782,5.398l-54.54,0c-2.892,0 -5.589,-2.313 -5.589,-5.398l-0,-55.504c-0,-3.083 2.697,-5.396 5.589,-5.396l80.559,0c2.89,0 5.588,2.313 5.588,5.396c-0,3.084 -2.698,5.397 -5.588,5.397m-74.971,128.162c-0,2.891 -2.504,5.589 -5.588,5.589c-2.892,0 -5.589,-2.698 -5.589,-5.589l-0,-56.661c-0,-2.893 2.697,-5.397 5.589,-5.397c3.084,0 5.588,2.504 5.588,5.397l-0,56.661Zm-38.822,-35.076c-2.313,8.865 -5.975,16.767 -10.986,22.934c-9.25,12.142 -23.127,18.309 -41.243,18.309c-18.694,0 -32.185,-5.59 -41.243,-16.961c-9.829,-11.756 -14.647,-30.063 -14.647,-55.89c-0,-13.104 1.156,-23.705 3.276,-32.955c2.12,-9.444 5.396,-17.152 10.214,-22.934c4.819,-5.975 10.793,-10.215 18.117,-13.106c6.745,-2.698 14.839,-3.854 24.283,-3.854c9.444,0 17.731,1.35 24.476,4.626c7.323,2.891 13.298,7.708 18.117,13.875c8.672,11.949 12.912,29.679 12.912,54.348c-0,11.951 -1.157,22.549 -3.276,31.608m75.074,-244.637c-119.205,0 -215.839,96.634 -215.839,215.839c-0,119.204 96.634,215.839 215.839,215.839c119.204,0 215.839,-96.635 215.839,-215.839c-0,-119.205 -96.635,-215.839 -215.839,-215.839"
            style="fill:#009a96;fill-rule:nonzero;"/></g></g></svg>